<svg class="core-svgs" xmlns="http://www.w3.org/2000/svg" version="1.1" xmlns:xlink="http://www.w3.org/1999/xlink" width="100" height="100" x="0" y="0" viewBox="0 0 64 64" style="enable-background:new 0 0 512 512" xml:space="preserve">
                    <g>
                        <path d="M61.15 44.9a4.007 4.007 0 0 0-5.46-1.47l-9.75 5.63a3.982 3.982 0 0 0-2.26-1.63l-14.92-3.99a6.957 6.957 0 0 0-3.51-.03L20 44.72V43a1 1 0 0 0-1-1h-8a1 1 0 0 0-1 1v1H3a1 1 0 0 0-1 1v14a1 1 0 0 0 1 1h7v1a1 1 0 0 0 1 1h8a1 1 0 0 0 1-1v-1.38l1.29.64a7.063 7.063 0 0 0 3.13.74h14.97a6.93 6.93 0 0 0 3.5-.94l16.8-9.7a4.009 4.009 0 0 0 1.46-5.46ZM10 58H4V46h6Zm8 2h-6V44h6Zm40.69-11.37-16.8 9.7a4.982 4.982 0 0 1-2.5.67H24.42a4.956 4.956 0 0 1-2.24-.53L20 57.38v-10.6l5.73-1.43a4.964 4.964 0 0 1 2.51.02l14.92 4a1.991 1.991 0 0 1 .48 3.66 1.95 1.95 0 0 1-1.51.2l-11.93-3.2a1 1 0 0 0-.52 1.94l11.93 3.19a4.072 4.072 0 0 0 1.04.14 3.916 3.916 0 0 0 1.99-.54 3.975 3.975 0 0 0 1.87-2.43 4.118 4.118 0 0 0 .11-1.35l10.07-5.81a2.025 2.025 0 0 1 2.72.73 2 2 0 0 1-.72 2.73Z" fill="#007ff0" opacity="1" data-original="var(--accent)" class=""></path>
                        <path d="M15 59a1 1 0 0 0 1-1v-1a1 1 0 0 0-2 0v1a1 1 0 0 0 1 1ZM46 17h-3.75l-.18-.42 2.66-2.65a1.008 1.008 0 0 0 0-1.42l-4.24-4.24a1.008 1.008 0 0 0-1.42 0l-2.65 2.66-.42-.18V7a1 1 0 0 0-1-1h-6a1 1 0 0 0-1 1v3.75l-.42.18-2.65-2.66a1.008 1.008 0 0 0-1.42 0l-4.24 4.24a1.008 1.008 0 0 0 0 1.42l2.66 2.65-.18.42H18a1 1 0 0 0-1 1v6a1 1 0 0 0 1 1h3.75l.18.42-2.66 2.65a1.033 1.033 0 0 0-.29.71 1.052 1.052 0 0 0 .29.71l4.24 4.24a1.033 1.033 0 0 0 .71.29 1.052 1.052 0 0 0 .71-.29l2.65-2.66.42.18V35a1 1 0 0 0 1 1h6a1 1 0 0 0 1-1v-3.75l.42-.18 2.65 2.66a1.047 1.047 0 0 0 1.42 0l4.24-4.24a1.052 1.052 0 0 0 .29-.71 1.033 1.033 0 0 0-.29-.71l-2.66-2.65.18-.42H46a1 1 0 0 0 1-1v-6a1 1 0 0 0-1-1Zm-1 6h-3.46a1 1 0 0 0-.95.69 7.906 7.906 0 0 1-.61 1.45 1.016 1.016 0 0 0 .17 1.19l2.46 2.45-2.83 2.83-2.45-2.46a1.016 1.016 0 0 0-1.19-.17 7.906 7.906 0 0 1-1.45.61 1 1 0 0 0-.69.95V34h-4v-3.46a1 1 0 0 0-.69-.95 7.906 7.906 0 0 1-1.45-.61 1.016 1.016 0 0 0-1.19.17l-2.45 2.46-2.83-2.83 2.46-2.45a1.016 1.016 0 0 0 .17-1.19 7.906 7.906 0 0 1-.61-1.45 1 1 0 0 0-.95-.69H19v-4h3.46a1 1 0 0 0 .95-.69 7.906 7.906 0 0 1 .61-1.45 1.016 1.016 0 0 0-.17-1.19l-2.46-2.45 2.83-2.83 2.45 2.46a1.016 1.016 0 0 0 1.19.17 7.906 7.906 0 0 1 1.45-.61 1 1 0 0 0 .69-.95V8h4v3.46a1 1 0 0 0 .69.95 7.906 7.906 0 0 1 1.45.61 1.016 1.016 0 0 0 1.19-.17l2.45-2.46 2.83 2.83-2.46 2.45a1.016 1.016 0 0 0-.17 1.19 7.906 7.906 0 0 1 .61 1.45 1 1 0 0 0 .95.69H45Z" fill="#007ff0" opacity="1" data-original="var(--accent)" class=""></path>
                        <path d="M38 21a6 6 0 1 0-6 6 6.006 6.006 0 0 0 6-6Zm-10 0a4 4 0 1 1 4 4 4 4 0 0 1-4-4Z" fill="#007ff0" opacity="1" data-original="var(--accent)" class=""></path>
                        <path d="M55 23h-2a21 21 0 0 0-42 0H9a6 6 0 0 0 0 12h5a1 1 0 0 0 1-1V24a1 1 0 0 0-1-1h-1a19 19 0 0 1 38 0h-1a1 1 0 0 0-1 1v10a1 1 0 0 0 1 1h1v3a1 1 0 0 1-1 1h-7.18A3.01 3.01 0 0 0 40 37h-2a3 3 0 0 0 0 6h2a3.01 3.01 0 0 0 2.82-2H50a3.009 3.009 0 0 0 3-3v-3h2a6 6 0 0 0 0-12ZM9 33a4 4 0 0 1 0-8Zm4 0h-2v-8h2Zm27 8h-2a1 1 0 0 1 0-2h2a1 1 0 0 1 0 2Zm13-8h-2v-8h2Zm2 0v-8a4 4 0 0 1 0 8Z" fill="#007ff0" opacity="1" data-original="var(--accent)" class=""></path>
                    </g>
                </svg>