<?xml version="1.0" encoding="UTF-8"?>
<svg version="1.1" xmlns="http://www.w3.org/2000/svg" width="64" height="64" >
<path d="M0 0 C3.86184826 1.82929654 5.47015759 2.94031518 7.375 6.75 C7.58125 7.4925 7.7875 8.235 8 9 C9.299375 8.87625 9.299375 8.87625 10.625 8.75 C14.84417957 9.06253182 16.75234357 10.34282656 20 13 C22.08007422 16.0255625 22 17.14475109 22 21 C22.66 21 23.32 21 24 21 C26.10188936 24.41557022 26.4871351 27.02173 26 31 C25.360625 31.78375 24.72125 32.5675 24.0625 33.375 C21.24972832 36.95489123 21.30459864 39.50717001 21 44 C21.99 44.33 22.98 44.66 24 45 C24.04254356 46.99954746 24.04080783 49.00041636 24 51 C23 52 23 52 20 52.125 C17 52 17 52 16 51 C15.95919217 49.00041636 15.95745644 46.99954746 16 45 C16.99 44.67 17.98 44.34 19 44 C19 41.36 19 38.72 19 36 C16.36 36 13.72 36 11 36 C11 39.96 11 43.92 11 48 C11.99 48.33 12.98 48.66 14 49 C14.04254356 50.99954746 14.04080783 53.00041636 14 55 C13 56 13 56 10 56.125 C7 56 7 56 6 55 C5.95919217 53.00041636 5.95745644 50.99954746 6 49 C6.99 48.67 7.98 48.34 9 48 C9 44.04 9 40.08 9 36 C7.02 36 5.04 36 3 36 C3 35.34 3 34.68 3 34 C4.04800781 33.93941406 5.09601562 33.87882812 6.17578125 33.81640625 C7.55470048 33.73198262 8.93360605 33.64733553 10.3125 33.5625 C11.00279297 33.52318359 11.69308594 33.48386719 12.40429688 33.44335938 C15.47161535 33.25072585 18.06968152 32.97677283 21 32 C22.20114687 27.89608154 22.17251574 26.35119277 20.25 22.4375 C19.86714844 21.85484375 19.48429687 21.2721875 19.08984375 20.671875 C18 19 18 19 16.8125 16.1875 C14.64060107 13.56624268 13.82052208 13.60550368 10.5625 13.0625 C6.66537362 12.41192623 6.24133325 12.304842 3.625 9 C3.08875 8.01 2.5525 7.02 2 6 C-2.0339779 3.3106814 -5.26038359 3.2073679 -10 4 C-13.46478808 5.76894244 -15.63511008 7.95398223 -16.9375 11.6875 C-17.288125 12.450625 -17.63875 13.21375 -18 14 C-20.31847874 14.7166207 -22.65319703 15.38242027 -25 16 C-28.43091225 19.08782103 -28.57145008 22.54308084 -29 27 C-29.99 27 -30.98 27 -32 27 C-32.41776675 20.94238206 -32.12264203 17.80974903 -28 13 C-24.9744375 10.91992578 -23.85524891 11 -20 11 C-19.95875 10.278125 -19.9175 9.55625 -19.875 8.8125 C-18.60534887 4.7314785 -16.42277215 3.51468974 -13 1 C-9.05073852 -0.97463074 -4.3043643 -0.43711457 0 0 Z M19 47 C19 47.66 19 48.32 19 49 C19.66 49 20.32 49 21 49 C21 48.34 21 47.68 21 47 C20.34 47 19.68 47 19 47 Z M9 51 C9 51.66 9 52.32 9 53 C9.66 53 10.32 53 11 53 C11 52.34 11 51.68 11 51 C10.34 51 9.68 51 9 51 Z " fill="#007ff0" transform="translate(35,4)"/>
<path d="M0 0 C0.66 0 1.32 0 2 0 C2 1.32 2 2.64 2 4 C3.98 4 5.96 4 8 4 C8 2.68 8 1.36 8 0 C8.66 0 9.32 0 10 0 C10 1.32 10 2.64 10 4 C11.98 4 13.96 4 16 4 C16 2.68 16 1.36 16 0 C16.66 0 17.32 0 18 0 C18 1.32 18 2.64 18 4 C19.32 4 20.64 4 22 4 C22 5.32 22 6.64 22 8 C23.32 8 24.64 8 26 8 C26 8.66 26 9.32 26 10 C24.68 10 23.36 10 22 10 C22 11.98 22 13.96 22 16 C23.32 16 24.64 16 26 16 C26 16.66 26 17.32 26 18 C24.68 18 23.36 18 22 18 C22 19.98 22 21.96 22 24 C23.32 24 24.64 24 26 24 C26 24.66 26 25.32 26 26 C24.68 26 23.36 26 22 26 C22 27.32 22 28.64 22 30 C20.68 30 19.36 30 18 30 C18 31.32 18 32.64 18 34 C17.34 34 16.68 34 16 34 C16 32.68 16 31.36 16 30 C14.02 30 12.04 30 10 30 C10 31.32 10 32.64 10 34 C9.34 34 8.68 34 8 34 C8 32.68 8 31.36 8 30 C6.02 30 4.04 30 2 30 C2 31.32 2 32.64 2 34 C1.34 34 0.68 34 0 34 C0 32.68 0 31.36 0 30 C-1.32 30 -2.64 30 -4 30 C-4 28.68 -4 27.36 -4 26 C-5.32 26 -6.64 26 -8 26 C-8 25.34 -8 24.68 -8 24 C-6.68 24 -5.36 24 -4 24 C-4 22.02 -4 20.04 -4 18 C-5.32 18 -6.64 18 -8 18 C-8 17.34 -8 16.68 -8 16 C-6.68 16 -5.36 16 -4 16 C-4 14.02 -4 12.04 -4 10 C-5.32 10 -6.64 10 -8 10 C-8 9.34 -8 8.68 -8 8 C-6.68 8 -5.36 8 -4 8 C-4 6.68 -4 5.36 -4 4 C-2.68 4 -1.36 4 0 4 C0 2.68 0 1.36 0 0 Z M-2 6 C-2 13.26 -2 20.52 -2 28 C5.26 28 12.52 28 20 28 C20 20.74 20 13.48 20 6 C12.74 6 5.48 6 -2 6 Z " fill="#007ff0" transform="translate(12,26)"/>
</svg>
