<?xml version="1.0" encoding="UTF-8"?>
<svg version="1.1" xmlns="http://www.w3.org/2000/svg" width="64" height="64">
<path d="M0 0 C1.36560059 0.00303635 1.36560059 0.00303635 2.75878906 0.00613403 C3.68723633 0.00517731 4.61568359 0.00422058 5.57226562 0.00323486 C7.53938871 0.00255298 9.50651403 0.00440781 11.47363281 0.00857544 C14.49581932 0.01392358 17.51785721 0.00863071 20.54003906 0.00222778 C22.44628939 0.00288856 24.35253963 0.00416972 26.25878906 0.00613403 C27.16918945 0.0041098 28.07958984 0.00208557 29.01757812 0 C35.39383938 0.02399685 35.39383938 0.02399685 36.50878906 1.13894653 C36.60995827 4.22976119 36.64847464 7.29777208 36.64160156 10.38894653 C36.64255829 11.3173938 36.64351501 12.24584106 36.64450073 13.2024231 C36.64518261 15.16954618 36.64332778 17.1366715 36.63916016 19.10379028 C36.63381201 22.1259768 36.63910488 25.14801468 36.64550781 28.17019653 C36.64484703 30.07644686 36.64356587 31.9826971 36.64160156 33.88894653 C36.64362579 34.79934692 36.64565002 35.70974731 36.6477356 36.6477356 C36.62373875 43.02399685 36.62373875 43.02399685 35.50878906 44.13894653 C32.41797441 44.24011574 29.34996351 44.27863211 26.25878906 44.27175903 C25.3303418 44.27271576 24.40189453 44.27367249 23.4453125 44.2746582 C21.47818942 44.27534008 19.5110641 44.27348525 17.54394531 44.26931763 C14.5217588 44.26396948 11.49972092 44.26926236 8.47753906 44.27566528 C6.57128873 44.2750045 4.6650385 44.27372334 2.75878906 44.27175903 C1.39318848 44.27479538 1.39318848 44.27479538 0 44.27789307 C-6.37626125 44.25389622 -6.37626125 44.25389622 -7.49121094 43.13894653 C-7.59238014 40.04813188 -7.63089651 36.98012098 -7.62402344 33.88894653 C-7.62498016 32.96049927 -7.62593689 32.032052 -7.62692261 31.07546997 C-7.62760449 29.10834689 -7.62574966 27.14122157 -7.62158203 25.17410278 C-7.61623389 22.15191627 -7.62152676 19.12987839 -7.62792969 16.10769653 C-7.62726891 14.2014462 -7.62598775 12.29519597 -7.62402344 10.38894653 C-7.62604767 9.47854614 -7.6280719 8.56814575 -7.63015747 7.63015747 C-7.6018747 0.11507346 -7.51508401 0.02828277 0 0 Z M-3.49121094 4.13894653 C-3.49121094 16.01894653 -3.49121094 27.89894653 -3.49121094 40.13894653 C8.38878906 40.13894653 20.26878906 40.13894653 32.50878906 40.13894653 C32.50878906 28.25894653 32.50878906 16.37894653 32.50878906 4.13894653 C20.62878906 4.13894653 8.74878906 4.13894653 -3.49121094 4.13894653 Z " fill="#007ff0" transform="translate(17.4912109375,9.861053466796875)"/>
<path d="M0 0 C1.32 0 2.64 0 4 0 C4 2.64 4 5.28 4 8 C2.68 8 1.36 8 0 8 C0 5.36 0 2.72 0 0 Z " fill="#007ff0" transform="translate(42,56)"/>
<path d="M0 0 C1.32 0 2.64 0 4 0 C4 2.64 4 5.28 4 8 C2.68 8 1.36 8 0 8 C0 5.36 0 2.72 0 0 Z " fill="#007ff0" transform="translate(36,56)"/>
<path d="M0 0 C1.32 0 2.64 0 4 0 C4 2.64 4 5.28 4 8 C2.68 8 1.36 8 0 8 C0 5.36 0 2.72 0 0 Z " fill="#007ff0" transform="translate(30,56)"/>
<path d="M0 0 C1.32 0 2.64 0 4 0 C4 2.64 4 5.28 4 8 C2.68 8 1.36 8 0 8 C0 5.36 0 2.72 0 0 Z " fill="#007ff0" transform="translate(24,56)"/>
<path d="M0 0 C1.32 0 2.64 0 4 0 C4 2.64 4 5.28 4 8 C2.68 8 1.36 8 0 8 C0 5.36 0 2.72 0 0 Z " fill="#007ff0" transform="translate(18,56)"/>
<path d="M0 0 C2.64 0 5.28 0 8 0 C8 1.32 8 2.64 8 4 C5.36 4 2.72 4 0 4 C0 2.68 0 1.36 0 0 Z " fill="#007ff0" transform="translate(56,42)"/>
<path d="M0 0 C2.64 0 5.28 0 8 0 C8 1.32 8 2.64 8 4 C5.36 4 2.72 4 0 4 C0 2.68 0 1.36 0 0 Z " fill="#007ff0" transform="translate(0,42)"/>
<path d="M0 0 C2.64 0 5.28 0 8 0 C8 1.32 8 2.64 8 4 C5.36 4 2.72 4 0 4 C0 2.68 0 1.36 0 0 Z " fill="#007ff0" transform="translate(56,36)"/>
<path d="M0 0 C2.64 0 5.28 0 8 0 C8 1.32 8 2.64 8 4 C5.36 4 2.72 4 0 4 C0 2.68 0 1.36 0 0 Z " fill="#007ff0" transform="translate(0,36)"/>
<path d="M0 0 C2.64 0 5.28 0 8 0 C8 1.32 8 2.64 8 4 C5.36 4 2.72 4 0 4 C0 2.68 0 1.36 0 0 Z " fill="#007ff0" transform="translate(56,30)"/>
<path d="M0 0 C2.64 0 5.28 0 8 0 C8 1.32 8 2.64 8 4 C5.36 4 2.72 4 0 4 C0 2.68 0 1.36 0 0 Z " fill="#007ff0" transform="translate(0,30)"/>
<path d="M0 0 C2.64 0 5.28 0 8 0 C8 1.32 8 2.64 8 4 C5.36 4 2.72 4 0 4 C0 2.68 0 1.36 0 0 Z " fill="#007ff0" transform="translate(56,24)"/>
<path d="M0 0 C2.64 0 5.28 0 8 0 C8 1.32 8 2.64 8 4 C5.36 4 2.72 4 0 4 C0 2.68 0 1.36 0 0 Z " fill="#007ff0" transform="translate(0,24)"/>
<path d="M0 0 C2.64 0 5.28 0 8 0 C8 1.32 8 2.64 8 4 C5.36 4 2.72 4 0 4 C0 2.68 0 1.36 0 0 Z " fill="#007ff0" transform="translate(56,18)"/>
<path d="M0 0 C2.64 0 5.28 0 8 0 C8 1.32 8 2.64 8 4 C5.36 4 2.72 4 0 4 C0 2.68 0 1.36 0 0 Z " fill="#007ff0" transform="translate(0,18)"/>
<path d="M0 0 C1.32 0 2.64 0 4 0 C4 2.64 4 5.28 4 8 C2.68 8 1.36 8 0 8 C0 5.36 0 2.72 0 0 Z " fill="#007ff0" transform="translate(42,0)"/>
<path d="M0 0 C1.32 0 2.64 0 4 0 C4 2.64 4 5.28 4 8 C2.68 8 1.36 8 0 8 C0 5.36 0 2.72 0 0 Z " fill="#007ff0" transform="translate(36,0)"/>
<path d="M0 0 C1.32 0 2.64 0 4 0 C4 2.64 4 5.28 4 8 C2.68 8 1.36 8 0 8 C0 5.36 0 2.72 0 0 Z " fill="#007ff0" transform="translate(30,0)"/>
<path d="M0 0 C1.32 0 2.64 0 4 0 C4 2.64 4 5.28 4 8 C2.68 8 1.36 8 0 8 C0 5.36 0 2.72 0 0 Z " fill="#007ff0" transform="translate(24,0)"/>
<path d="M0 0 C1.32 0 2.64 0 4 0 C4 2.64 4 5.28 4 8 C2.68 8 1.36 8 0 8 C0 5.36 0 2.72 0 0 Z " fill="#007ff0" transform="translate(18,0)"/>
<path d="M0 0 C1.32 0 2.64 0 4 0 C4 1.32 4 2.64 4 4 C2.68 4 1.36 4 0 4 C0 2.68 0 1.36 0 0 Z " fill="#007ff0" transform="translate(44,44)"/>
<path d="M0 0 C1.32 0 2.64 0 4 0 C4 1.32 4 2.64 4 4 C2.68 4 1.36 4 0 4 C0 2.68 0 1.36 0 0 Z " fill="#007ff0" transform="translate(16,44)"/>
<path d="M0 0 C1.32 0 2.64 0 4 0 C4 1.32 4 2.64 4 4 C2.68 4 1.36 4 0 4 C0 2.68 0 1.36 0 0 Z " fill="#007ff0" transform="translate(44,16)"/>
<path d="M0 0 C1.32 0 2.64 0 4 0 C4 1.32 4 2.64 4 4 C2.68 4 1.36 4 0 4 C0 2.68 0 1.36 0 0 Z " fill="#007ff0" transform="translate(16,16)"/>
</svg>
