<?xml version="1.0" encoding="UTF-8"?>
<svg xmlns="http://www.w3.org/2000/svg" xmlns:xlink="http://www.w3.org/1999/xlink" width="566.93pt" height="141.73pt" viewBox="0 0 566.93 141.73" version="1.1">
<defs>
<clipPath id="clip1">
  <path d="M 0 0 L 566.929688 0 L 566.929688 141.730469 L 0 141.730469 Z M 0 0 "/>
</clipPath>
</defs>
<g id="surface1">
<g clip-path="url(#clip1)" clip-rule="nonzero">
<path style=" stroke:none;fill-rule:nonzero;fill:rgb(45.899963%,74.499512%,26.298523%);fill-opacity:1;" d="M 566.929688 141.730469 L 0 141.730469 L 0 0 L 566.929688 0 L 566.929688 141.730469 "/>
</g>
<path style=" stroke:none;fill-rule:nonzero;fill:rgb(45.899963%,74.499512%,26.298523%);fill-opacity:1;" d="M 65.449219 87.539063 L 50.78125 47.171875 C 50.65625 46.875 50.304688 46.277344 48.84375 46.265625 C 47.929688 46.285156 47.296875 46.59375 47.074219 46.777344 C 45.816406 50.132813 40.65625 63.816406 31.707031 87.539063 Z M 14.21875 121.113281 C 13.378906 121.113281 12.554688 120.964844 11.765625 120.667969 L 10.835938 120.316406 C 7.25 118.957031 5.429688 114.933594 6.785156 111.347656 L 7.164063 110.34375 C 12.683594 95.71875 30.871094 47.527344 33.179688 41.371094 C 35.394531 35.464844 41.628906 31.441406 48.691406 31.359375 L 48.859375 31.359375 C 56.035156 31.359375 62.09375 35.339844 64.671875 41.753906 L 89.992188 111.433594 C 91.300781 115.035156 89.433594 119.039063 85.832031 120.355469 L 84.90625 120.691406 C 84.121094 120.972656 83.328125 121.109375 82.523438 121.109375 C 81.511719 121.109375 80.492188 120.882813 79.574219 120.453125 C 77.890625 119.667969 76.613281 118.269531 75.976563 116.523438 L 70.863281 102.449219 L 26.078125 102.449219 L 20.734375 116.609375 C 20.082031 118.34375 18.785156 119.726563 17.089844 120.496094 C 16.183594 120.90625 15.21875 121.113281 14.21875 121.113281 "/>
<path style=" stroke:none;fill-rule:nonzero;fill:rgb(1.599121%,1.599121%,1.998901%);fill-opacity:1;" d="M 38.933594 82.539063 C 43.316406 70.929688 46.613281 62.191406 48.804688 56.371094 L 58.3125 82.539063 Z M 48.859375 26.359375 L 48.628906 26.359375 C 39.523438 26.46875 31.429688 31.792969 28.496094 39.613281 C 26.1875 45.777344 8.003906 93.957031 2.484375 108.574219 L 2.105469 109.582031 C -0.21875 115.746094 2.902344 122.660156 9.066406 124.992188 L 9.988281 125.339844 C 11.359375 125.855469 12.777344 126.113281 14.21875 126.113281 C 15.933594 126.113281 17.597656 125.757813 19.15625 125.046875 C 22.066406 123.730469 24.292969 121.355469 25.417969 118.355469 L 26.730469 114.882813 L 29.144531 108.488281 L 29.535156 107.449219 L 67.363281 107.449219 L 71.28125 118.230469 C 72.371094 121.230469 74.566406 123.632813 77.460938 124.984375 C 79.03125 125.71875 80.78125 126.109375 82.523438 126.109375 C 83.90625 126.109375 85.265625 125.871094 86.566406 125.40625 L 86.59375 125.398438 L 86.617188 125.390625 L 87.539063 125.054688 C 93.734375 122.789063 96.941406 115.914063 94.691406 109.726563 L 69.429688 40.203125 L 69.371094 40.042969 L 69.308594 39.886719 C 65.957031 31.542969 58.121094 26.359375 48.859375 26.359375 Z M 24.472656 92.539063 L 72.585938 92.539063 L 55.445313 45.371094 C 54.40625 42.785156 51.980469 41.265625 48.816406 41.265625 C 45.847656 41.300781 43.234375 42.777344 42.457031 44.851563 C 41.214844 48.164063 35.171875 64.1875 24.472656 92.539063 M 48.859375 36.359375 C 54.027344 36.359375 58.207031 39.070313 60.03125 43.617188 L 85.292969 113.140625 C 85.664063 114.15625 85.136719 115.285156 84.117188 115.65625 L 83.195313 115.992188 C 82.976563 116.070313 82.75 116.109375 82.523438 116.109375 C 82.238281 116.109375 81.957031 116.046875 81.695313 115.925781 C 81.222656 115.703125 80.855469 115.304688 80.679688 114.816406 L 74.355469 97.410156 C 74.234375 97.433594 74.109375 97.449219 73.984375 97.449219 L 22.621094 97.449219 C 20.972656 101.820313 19.222656 106.449219 17.375 111.351563 L 16.054688 114.84375 C 15.871094 115.332031 15.503906 115.726563 15.027344 115.941406 C 14.773438 116.058594 14.496094 116.113281 14.21875 116.113281 C 13.984375 116.113281 13.75 116.070313 13.523438 115.988281 L 12.605469 115.640625 C 11.59375 115.257813 11.082031 114.125 11.464844 113.109375 L 11.84375 112.105469 C 18.933594 93.316406 35.667969 48.976563 37.859375 43.125 C 39.355469 39.136719 43.730469 36.417969 48.75 36.359375 C 48.757813 36.359375 48.851563 36.359375 48.859375 36.359375 "/>
<path style=" stroke:none;fill-rule:nonzero;fill:rgb(45.899963%,74.499512%,26.298523%);fill-opacity:1;" d="M 273.566406 87.988281 L 258.734375 47.171875 C 258.609375 46.875 258.261719 46.277344 256.800781 46.265625 C 255.882813 46.285156 255.25 46.59375 255.027344 46.777344 C 253.761719 50.15625 248.542969 63.988281 239.488281 87.988281 Z M 222.171875 121.113281 C 221.332031 121.113281 220.507813 120.964844 219.722656 120.671875 L 218.789063 120.316406 C 215.203125 118.957031 213.382813 114.933594 214.738281 111.347656 L 215.117188 110.34375 C 220.992188 94.769531 238.878906 47.378906 241.132813 41.371094 C 243.347656 35.464844 249.578125 31.441406 256.640625 31.359375 L 256.8125 31.359375 C 263.988281 31.359375 270.046875 35.339844 272.625 41.75 L 297.945313 111.433594 C 299.257813 115.035156 297.386719 119.039063 293.78125 120.355469 L 292.855469 120.691406 C 292.085938 120.96875 291.285156 121.109375 290.476563 121.109375 C 289.460938 121.109375 288.4375 120.882813 287.519531 120.449219 C 285.84375 119.664063 284.566406 118.269531 283.933594 116.523438 L 279.066406 103.128906 L 233.773438 103.128906 L 228.6875 116.609375 C 228.035156 118.34375 226.738281 119.726563 225.039063 120.496094 C 224.136719 120.90625 223.167969 121.113281 222.171875 121.113281 "/>
<path style=" stroke:none;fill-rule:nonzero;fill:rgb(1.599121%,1.599121%,1.998901%);fill-opacity:1;" d="M 246.71875 82.988281 C 251.105469 71.367188 254.496094 62.371094 256.757813 56.371094 L 266.429688 82.988281 Z M 256.8125 26.359375 L 256.582031 26.359375 C 247.472656 26.46875 239.382813 31.792969 236.449219 39.613281 C 234.210938 45.59375 216.941406 91.347656 210.4375 108.574219 L 210.058594 109.582031 C 207.734375 115.746094 210.855469 122.660156 217.019531 124.992188 L 217.9375 125.339844 C 219.316406 125.859375 220.730469 126.113281 222.171875 126.113281 C 223.886719 126.113281 225.542969 125.757813 227.105469 125.050781 C 230.019531 123.730469 232.246094 121.355469 233.371094 118.355469 L 234.683594 114.882813 L 237.230469 108.128906 L 275.5625 108.128906 L 279.234375 118.230469 C 280.324219 121.230469 282.515625 123.628906 285.410156 124.980469 C 286.972656 125.71875 288.730469 126.109375 290.476563 126.109375 C 291.867188 126.109375 293.238281 125.871094 294.546875 125.394531 L 295.492188 125.054688 C 301.6875 122.792969 304.894531 115.917969 302.644531 109.726563 L 277.382813 40.199219 L 277.324219 40.042969 L 277.261719 39.886719 C 273.910156 31.542969 266.074219 26.359375 256.8125 26.359375 Z M 232.257813 92.988281 L 280.699219 92.988281 L 263.398438 45.371094 C 262.359375 42.785156 259.933594 41.265625 256.769531 41.265625 C 253.800781 41.300781 251.1875 42.777344 250.410156 44.851563 C 249.160156 48.183594 243.0625 64.355469 232.257813 92.988281 M 256.8125 36.359375 C 261.980469 36.359375 266.15625 39.070313 267.984375 43.617188 L 293.246094 113.140625 C 293.617188 114.15625 293.089844 115.285156 292.070313 115.65625 L 291.148438 115.992188 C 290.929688 116.070313 290.703125 116.109375 290.476563 116.109375 C 290.191406 116.109375 289.910156 116.050781 289.644531 115.925781 C 289.175781 115.703125 288.808594 115.304688 288.632813 114.816406 L 282.566406 98.128906 L 230.316406 98.128906 C 228.742188 102.300781 227.082031 106.703125 225.328125 111.351563 L 224.011719 114.84375 C 223.824219 115.332031 223.457031 115.726563 222.980469 115.941406 C 222.722656 116.058594 222.449219 116.113281 222.171875 116.113281 C 221.9375 116.113281 221.703125 116.070313 221.476563 115.988281 L 220.558594 115.640625 C 219.546875 115.257813 219.03125 114.125 219.414063 113.109375 L 219.796875 112.105469 C 226.886719 93.316406 243.621094 48.976563 245.8125 43.125 C 247.308594 39.136719 251.683594 36.417969 256.703125 36.359375 C 256.710938 36.359375 256.804688 36.359375 256.8125 36.359375 "/>
<path style=" stroke:none;fill-rule:nonzero;fill:rgb(45.899963%,74.499512%,26.298523%);fill-opacity:1;" d="M 152.585938 122.203125 L 152.5 122.195313 C 148.359375 122.085938 144.832031 119.378906 143.488281 115.269531 C 143.242188 114.511719 141.671875 109.28125 138.148438 97.523438 C 134.09375 84 128.734375 67.074219 125.164063 55.976563 C 121.589844 76.523438 114.949219 114.84375 114.882813 115.222656 C 114.578125 117.027344 113.546875 118.675781 112.046875 119.738281 C 110.875 120.574219 109.476563 121.023438 108.019531 121.023438 C 107.628906 121.023438 107.238281 120.988281 106.855469 120.925781 L 105.898438 120.765625 C 102.105469 120.125 99.542969 116.523438 100.183594 112.738281 C 100.242188 112.390625 111.988281 44.625 112.675781 40.828125 C 113.605469 35.691406 117.964844 31.8125 123.277344 31.394531 C 123.582031 31.367188 123.882813 31.359375 124.1875 31.359375 C 129.304688 31.359375 133.75 34.628906 135.523438 39.695313 C 136.777344 43.285156 146.164063 72.347656 152.429688 93.242188 C 152.429688 93.242188 152.839844 94.613281 152.960938 95.019531 C 158 79.441406 165.441406 56.230469 168.820313 45.257813 L 170.453125 39.960938 C 172.042969 34.816406 176.5625 31.363281 181.699219 31.363281 L 182.097656 31.367188 C 187.1875 31.570313 191.253906 35.164063 192.460938 40.519531 C 193.625 45.695313 204.140625 110.039063 204.578125 112.8125 C 204.871094 114.652344 204.425781 116.496094 203.328125 118 C 202.234375 119.503906 200.621094 120.492188 198.78125 120.777344 L 197.824219 120.933594 C 197.449219 120.988281 197.089844 121.019531 196.730469 121.019531 C 193.285156 121.019531 190.390625 118.546875 189.851563 115.144531 C 189.546875 113.234375 183.863281 78.484375 180.425781 58.109375 C 174.195313 77.863281 162.867188 112.964844 161.957031 115.46875 C 160.460938 119.5625 156.851563 122.203125 152.757813 122.203125 L 152.585938 122.203125 "/>
<path style=" stroke:none;fill-rule:nonzero;fill:rgb(1.599121%,1.599121%,1.998901%);fill-opacity:1;" d="M 124.1875 26.359375 C 123.753906 26.359375 123.316406 26.375 122.882813 26.410156 C 115.308594 27.007813 109.089844 32.570313 107.757813 39.9375 C 107.066406 43.742188 95.308594 111.570313 95.25 111.929688 C 94.15625 118.410156 98.554688 124.59375 105.058594 125.691406 L 106.039063 125.855469 C 106.679688 125.964844 107.351563 126.023438 108.019531 126.023438 C 110.523438 126.023438 112.925781 125.253906 114.964844 123.800781 C 117.515625 121.992188 119.292969 119.15625 119.816406 116.042969 C 119.863281 115.769531 123.324219 95.789063 126.59375 76.976563 C 128.914063 84.371094 131.300781 92.101563 133.355469 98.960938 C 137.296875 112.105469 138.480469 116.046875 138.738281 116.832031 C 140.71875 122.890625 146.199219 127.042969 152.402344 127.195313 C 152.535156 127.199219 152.65625 127.203125 152.757813 127.203125 C 158.976563 127.203125 164.429688 123.269531 166.652344 117.1875 C 167.433594 115.035156 173.351563 96.75 178.90625 79.378906 C 181.699219 96.230469 184.507813 113.402344 184.917969 115.9375 C 185.839844 121.773438 190.8125 126.019531 196.730469 126.019531 C 197.34375 126.019531 197.960938 125.972656 198.5625 125.875 L 199.578125 125.714844 C 202.714844 125.222656 205.488281 123.527344 207.371094 120.941406 C 209.253906 118.355469 210.015625 115.195313 209.519531 112.035156 C 209.421875 111.414063 198.601563 45.03125 197.339844 39.421875 C 195.648438 31.90625 189.601563 26.664063 182.296875 26.371094 L 182.171875 26.367188 L 182.046875 26.367188 L 181.847656 26.363281 L 181.699219 26.363281 C 174.355469 26.363281 167.917969 31.230469 165.679688 38.480469 L 164.042969 43.78125 C 161.691406 51.421875 157.265625 65.308594 153.09375 78.296875 C 147.441406 60.042969 141.25 40.925781 140.242188 38.046875 C 137.761719 30.945313 131.457031 26.359375 124.1875 26.359375 Z M 124.1875 36.359375 C 126.542969 36.359375 129.515625 37.667969 130.800781 41.34375 C 132.050781 44.914063 141.394531 73.847656 147.640625 94.679688 L 147.804688 95.222656 C 150.136719 103.011719 152.1875 109.855469 152.765625 111.730469 C 154.429688 106.867188 168.648438 62.804688 173.601563 46.726563 L 175.230469 41.433594 C 176.167969 38.398438 178.769531 36.363281 181.699219 36.363281 L 181.898438 36.367188 C 184.707031 36.476563 186.878906 38.488281 187.582031 41.617188 C 188.691406 46.546875 199.160156 110.558594 199.640625 113.59375 C 199.808594 114.664063 199.078125 115.671875 198.007813 115.839844 L 197.039063 115.992188 C 196.933594 116.011719 196.832031 116.019531 196.730469 116.019531 C 195.777344 116.019531 194.945313 115.328125 194.792969 114.359375 C 194.691406 113.742188 183.890625 47.578125 182.792969 42.695313 C 182.648438 42.058594 182.347656 41.296875 181.71875 41.273438 C 181.71875 41.273438 181.71875 41.273438 181.714844 41.273438 C 181.183594 41.273438 180.285156 41.710938 179.921875 42.878906 L 178.292969 48.171875 C 173.546875 63.585938 158.3125 110.867188 157.257813 113.757813 C 156.480469 115.882813 154.757813 117.203125 152.757813 117.203125 C 152.738281 117.203125 152.710938 117.203125 152.679688 117.199219 C 150.664063 117.167969 148.921875 115.800781 148.242188 113.71875 C 148.003906 112.988281 146.164063 106.859375 142.9375 96.089844 C 136.710938 75.3125 127.40625 46.511719 126.167969 42.964844 C 125.894531 42.183594 125.308594 41.265625 124.207031 41.265625 C 124.15625 41.265625 124.105469 41.269531 124.054688 41.273438 C 123.226563 41.339844 122.558594 41.878906 122.429688 42.59375 C 121.734375 46.425781 110.019531 113.984375 109.953125 114.386719 C 109.867188 114.898438 109.582031 115.355469 109.15625 115.65625 C 108.820313 115.894531 108.421875 116.023438 108.019531 116.023438 C 107.910156 116.023438 107.800781 116.015625 107.691406 115.996094 L 106.722656 115.832031 C 105.652344 115.652344 104.933594 114.640625 105.113281 113.570313 C 105.179688 113.171875 116.894531 45.597656 117.597656 41.71875 C 118.121094 38.816406 120.617188 36.617188 123.671875 36.378906 C 123.84375 36.363281 124.015625 36.359375 124.1875 36.359375 "/>
<path style=" stroke:none;fill-rule:nonzero;fill:rgb(45.899963%,74.499512%,26.298523%);fill-opacity:1;" d="M 345.160156 78.699219 C 348.730469 78.699219 351.566406 77.359375 353.589844 74.71875 C 355.675781 71.996094 356.824219 68.15625 356.824219 63.90625 C 356.824219 55.957031 352.609375 47.40625 343.359375 47.40625 L 322.664063 47.40625 L 322.664063 78.699219 Z M 362.464844 121.265625 C 360.445313 121.265625 358.527344 120.390625 357.203125 118.863281 L 335.316406 93.609375 L 322.664063 93.609375 L 322.664063 113.980469 C 322.664063 117.816406 319.542969 120.941406 315.703125 120.941406 L 314.71875 120.941406 C 310.878906 120.941406 307.757813 117.816406 307.757813 113.980469 L 307.757813 39.460938 C 307.757813 35.621094 310.878906 32.496094 314.71875 32.496094 L 343.359375 32.496094 C 361.984375 32.496094 371.734375 48.296875 371.734375 63.90625 C 371.734375 71.417969 369.492188 78.476563 365.425781 83.785156 C 362.316406 87.84375 358.375 90.695313 353.792969 92.246094 L 368.453125 109.082031 C 369.683594 110.492188 370.28125 112.289063 370.148438 114.144531 C 370.03125 115.953125 369.164063 117.699219 367.777344 118.90625 L 367.035156 119.550781 C 365.765625 120.65625 364.140625 121.265625 362.464844 121.265625 "/>
<path style=" stroke:none;fill-rule:nonzero;fill:rgb(1.599121%,1.599121%,1.998901%);fill-opacity:1;" d="M 327.664063 52.40625 L 343.359375 52.40625 C 350.054688 52.40625 351.824219 59.925781 351.824219 63.90625 C 351.824219 67.019531 351.019531 69.851563 349.621094 71.675781 C 348.898438 72.621094 347.738281 73.699219 345.160156 73.699219 L 327.664063 73.699219 Z M 343.359375 27.496094 L 314.71875 27.496094 C 308.121094 27.496094 302.757813 32.863281 302.757813 39.460938 L 302.757813 113.980469 C 302.757813 120.574219 308.121094 125.941406 314.71875 125.941406 L 315.703125 125.941406 C 322.300781 125.941406 327.664063 120.574219 327.664063 113.980469 L 327.664063 98.609375 L 333.035156 98.609375 L 353.425781 122.140625 C 355.699219 124.761719 358.992188 126.265625 362.464844 126.265625 C 365.347656 126.265625 368.132813 125.222656 370.3125 123.332031 L 371.058594 122.679688 C 373.4375 120.605469 374.925781 117.617188 375.140625 114.472656 C 375.359375 111.292969 374.328125 108.21875 372.234375 105.808594 L 361.820313 93.851563 C 364.675781 92.007813 367.230469 89.65625 369.394531 86.828125 C 374.128906 80.648438 376.734375 72.507813 376.734375 63.90625 C 376.734375 54.808594 373.859375 46.167969 368.644531 39.574219 C 362.480469 31.785156 353.5 27.496094 343.359375 27.496094 Z M 317.664063 83.699219 L 345.160156 83.699219 C 350.292969 83.699219 354.582031 81.648438 357.558594 77.757813 C 360.308594 74.171875 361.824219 69.25 361.824219 63.90625 C 361.824219 53.222656 355.480469 42.40625 343.359375 42.40625 L 317.664063 42.40625 L 317.664063 83.699219 M 343.359375 37.496094 C 358.703125 37.496094 366.734375 50.78125 366.734375 63.90625 C 366.734375 70.324219 364.859375 76.304688 361.457031 80.746094 C 357.515625 85.890625 351.878906 88.609375 345.160156 88.609375 L 343.996094 88.609375 L 364.683594 112.363281 C 365.027344 112.757813 365.199219 113.269531 365.160156 113.789063 C 365.128906 114.308594 364.886719 114.792969 364.492188 115.136719 L 363.753906 115.78125 C 363.382813 116.105469 362.921875 116.265625 362.464844 116.265625 C 361.914063 116.265625 361.371094 116.035156 360.984375 115.589844 L 337.601563 88.609375 L 317.664063 88.609375 L 317.664063 113.980469 C 317.664063 115.0625 316.785156 115.941406 315.703125 115.941406 L 314.71875 115.941406 C 313.636719 115.941406 312.757813 115.0625 312.757813 113.980469 L 312.757813 39.460938 C 312.757813 38.375 313.636719 37.496094 314.71875 37.496094 L 343.359375 37.496094 "/>
<path style=" stroke:none;fill-rule:nonzero;fill:rgb(45.899963%,74.499512%,26.298523%);fill-opacity:1;" d="M 427.117188 45.777344 C 409.808594 45.777344 395.730469 59.855469 395.730469 77.164063 C 395.730469 94.472656 409.808594 108.554688 427.117188 108.554688 C 444.425781 108.554688 458.503906 94.472656 458.503906 77.164063 C 458.503906 59.855469 444.425781 45.777344 427.117188 45.777344 Z M 427.117188 123.460938 C 401.589844 123.460938 380.820313 102.691406 380.820313 77.164063 C 380.820313 51.636719 401.589844 30.867188 427.117188 30.867188 C 452.644531 30.867188 473.414063 51.636719 473.414063 77.164063 C 473.414063 102.691406 452.644531 123.460938 427.117188 123.460938 "/>
<path style=" stroke:none;fill-rule:nonzero;fill:rgb(1.599121%,1.599121%,1.998901%);fill-opacity:1;" d="M 427.117188 103.554688 C 412.566406 103.554688 400.730469 91.714844 400.730469 77.164063 C 400.730469 62.613281 412.566406 50.777344 427.117188 50.777344 C 441.667969 50.777344 453.503906 62.613281 453.503906 77.164063 C 453.503906 91.714844 441.667969 103.554688 427.117188 103.554688 Z M 427.117188 25.867188 C 398.832031 25.867188 375.820313 48.878906 375.820313 77.164063 C 375.820313 105.449219 398.832031 128.460938 427.117188 128.460938 C 455.402344 128.460938 478.414063 105.449219 478.414063 77.164063 C 478.414063 48.878906 455.402344 25.867188 427.117188 25.867188 Z M 427.117188 113.554688 C 447.183594 113.554688 463.503906 97.226563 463.503906 77.164063 C 463.503906 57.097656 447.183594 40.777344 427.117188 40.777344 C 407.054688 40.777344 390.730469 57.097656 390.730469 77.164063 C 390.730469 97.226563 407.054688 113.554688 427.117188 113.554688 M 427.117188 35.867188 C 449.886719 35.867188 468.414063 54.390625 468.414063 77.164063 C 468.414063 99.933594 449.886719 118.460938 427.117188 118.460938 C 404.347656 118.460938 385.820313 99.933594 385.820313 77.164063 C 385.820313 54.390625 404.347656 35.867188 427.117188 35.867188 "/>
<path style=" stroke:none;fill-rule:nonzero;fill:rgb(45.899963%,74.499512%,26.298523%);fill-opacity:1;" d="M 489.828125 120.941406 C 485.988281 120.941406 482.863281 117.816406 482.863281 113.980469 L 482.863281 40.882813 C 482.863281 40.226563 482.957031 39.574219 483.144531 38.9375 C 483.84375 36.488281 485.890625 33.511719 489.527344 32.574219 C 490.222656 32.390625 490.953125 32.300781 491.683594 32.300781 C 493.507813 32.300781 496.269531 32.886719 499.066406 35.679688 C 501.441406 38.054688 529.789063 74.402344 544.644531 93.496094 L 544.644531 40.953125 C 544.644531 37.113281 547.769531 33.988281 551.609375 33.988281 L 552.589844 33.988281 C 556.429688 33.988281 559.554688 37.113281 559.554688 40.953125 L 559.554688 111.03125 C 559.554688 116.488281 556.558594 118.8125 554.773438 119.710938 C 553.613281 120.292969 552.367188 120.589844 551.0625 120.589844 C 548.5625 120.589844 546.699219 119.496094 545.8125 118.84375 C 545.558594 118.660156 545.304688 118.445313 545.066406 118.21875 L 544.953125 118.101563 C 544.746094 117.902344 544.535156 117.667969 544.339844 117.417969 C 543.976563 116.945313 513.738281 78.027344 497.773438 57.78125 L 497.773438 113.980469 C 497.773438 117.816406 494.648438 120.941406 490.8125 120.941406 L 489.828125 120.941406 "/>
<path style=" stroke:none;fill-rule:nonzero;fill:rgb(1.599121%,1.599121%,1.998901%);fill-opacity:1;" d="M 491.683594 27.300781 C 490.527344 27.300781 489.375 27.445313 488.257813 27.738281 C 483.535156 28.953125 479.726563 32.722656 478.335938 37.566406 C 478.023438 38.648438 477.863281 39.761719 477.863281 40.882813 L 477.863281 113.980469 C 477.863281 120.574219 483.230469 125.941406 489.828125 125.941406 L 490.8125 125.941406 C 497.40625 125.941406 502.773438 120.574219 502.773438 113.980469 L 502.773438 72.238281 C 518.605469 92.445313 539.089844 118.796875 540.335938 120.414063 L 540.363281 120.453125 L 540.40625 120.507813 C 540.734375 120.925781 541.089844 121.320313 541.460938 121.683594 L 541.550781 121.769531 L 541.585938 121.804688 C 541.988281 122.195313 542.421875 122.558594 542.867188 122.886719 C 544.234375 123.890625 547.140625 125.589844 551.0625 125.589844 C 553.152344 125.589844 555.15625 125.113281 557.019531 124.175781 C 561.808594 121.769531 564.554688 116.976563 564.554688 111.03125 L 564.554688 40.953125 C 564.554688 34.355469 559.1875 28.988281 552.589844 28.988281 L 551.609375 28.988281 C 545.011719 28.988281 539.644531 34.355469 539.644531 40.953125 L 539.644531 78.929688 C 524.445313 59.429688 504.792969 34.332031 502.605469 32.144531 C 498.59375 28.140625 494.453125 27.300781 491.683594 27.300781 Z M 491.683594 37.300781 C 492.9375 37.300781 494.257813 37.945313 495.535156 39.21875 C 498.054688 41.738281 538.902344 94.226563 549.644531 108.078125 L 549.644531 40.953125 C 549.644531 39.867188 550.523438 38.988281 551.609375 38.988281 L 552.589844 38.988281 C 553.675781 38.988281 554.554688 39.867188 554.554688 40.953125 L 554.554688 111.03125 C 554.554688 113.148438 553.871094 114.566406 552.523438 115.242188 C 552.070313 115.472656 551.578125 115.589844 551.0625 115.589844 C 549.949219 115.589844 549.085938 115.046875 548.765625 114.8125 C 548.691406 114.757813 548.617188 114.695313 548.550781 114.628906 L 548.453125 114.53125 C 548.386719 114.46875 548.324219 114.398438 548.269531 114.324219 C 547.789063 113.699219 499.605469 51.6875 492.773438 43.507813 L 492.773438 113.980469 C 492.773438 115.0625 491.894531 115.941406 490.8125 115.941406 L 489.828125 115.941406 C 488.746094 115.941406 487.863281 115.0625 487.863281 113.980469 L 487.863281 40.882813 C 487.863281 40.699219 487.890625 40.515625 487.941406 40.335938 C 488.265625 39.214844 489.183594 37.824219 490.773438 37.414063 C 491.074219 37.339844 491.375 37.300781 491.683594 37.300781 "/>
</g>
</svg>
