<svg xmlns="http://www.w3.org/2000/svg" xmlns:xlink="http://www.w3.org/1999/xlink" width="212" height="84" viewBox="0 0 212 84">
  <defs>
    <clipPath id="clip-logo">
      <rect width="212" height="84"/>
    </clipPath>
  </defs>
  <g id="logo" clip-path="url(#clip-logo)">
    <g id="Vector_Smart_Object" data-name="Vector Smart Object" transform="translate(-60.083 -123.624)">
      <g id="Group_11" data-name="Group 11">
        <g id="Group_8" data-name="Group 8">
          <g id="Group_5" data-name="Group 5">
            <path id="Path_7" data-name="Path 7" d="M100.956,194.3a27.113,27.113,0,0,1,0-54.226Z" fill="#ec90ab"/>
          </g>
          <g id="Group_6" data-name="Group 6">
            <path id="Path_8" data-name="Path 8" d="M73.633,190.669a27.127,27.127,0,0,1,0-46.968Z" fill="#ec90ab"/>
          </g>
          <g id="Group_7" data-name="Group 7">
            <ellipse id="Ellipse_7" data-name="Ellipse 7" cx="27.104" cy="27.113" rx="27.104" ry="27.113" transform="translate(100.956 140.071)" fill="#ec90ab"/>
          </g>
        </g>
        <g id="Group_10" data-name="Group 10">
          <g id="Group_9" data-name="Group 9">
            <path id="Path_9" data-name="Path 9" d="M169.111,126.41h7.9a7.574,7.574,0,0,1,4.367,1.035,3.536,3.536,0,0,1,1.464,3.09,3.727,3.727,0,0,1-.951,2.6,5.6,5.6,0,0,1-2.8,1.535,5.259,5.259,0,0,1,3.519,1.157,3.91,3.91,0,0,1,1.259,3.083,4.558,4.558,0,0,1-1.709,3.823,7.875,7.875,0,0,1-4.919,1.329h-8.131v-1.272l1.555-.141.424-.412V128.2l-.424-.373-1.555-.129Zm5.408,7.838c.069.009.154.016.257.019s.252.007.449.007a4.591,4.591,0,0,0,3.026-.829,3.224,3.224,0,0,0,.969-2.589,2.8,2.8,0,0,0-.9-2.287,4.274,4.274,0,0,0-2.761-.745c-.205,0-.532.017-.976.051h-.078Zm-.013,8.326.09.013q.8.039,1.182.039a5.39,5.39,0,0,0,3.366-.843,3.267,3.267,0,0,0,1.053-2.71,3.1,3.1,0,0,0-.989-2.517,4.532,4.532,0,0,0-2.968-.83c-.385,0-.707,0-.963.013s-.514.021-.771.039Z" fill="#18307f"/>
            <path id="Path_10" data-name="Path 10" d="M189.944,131.011h1.272v11.371l.385.4,1.478.1v1.182h-6.9v-1.182l1.426-.1.373-.4V133.3h-1.735v-1.054Zm-.282-6a1.926,1.926,0,0,1,1.412.546,1.862,1.862,0,0,1,.553,1.382,1.968,1.968,0,0,1-.546,1.432,1.933,1.933,0,0,1-3.321-1.381,1.952,1.952,0,0,1,.546-1.413A1.807,1.807,0,0,1,189.662,125.01Z" fill="#18307f"/>
            <path id="Path_11" data-name="Path 11" d="M194.709,144.064v-1.182l1.4-.1.373-.4V133.3h-1.9v-1.054l3.865-1.233h1.272L199.6,133.7q.681-.72,1.452-1.394a20.471,20.471,0,0,1,1.618-1.278c.145-.026.263-.043.354-.051s.168-.013.238-.013a3.469,3.469,0,0,1,.854.11,4.159,4.159,0,0,1,.88.34l-.334,3.636h-1.375a1.935,1.935,0,0,0-.713-.72,2.024,2.024,0,0,0-1-.231,2.252,2.252,0,0,0-.8.186,7.221,7.221,0,0,0-1.059.546v7.555l.385.4,1.876.1v1.182Z" fill="#18307f"/>
            <path id="Path_12" data-name="Path 12" d="M206.153,144.064v-1.156l1.518-.154.37-.373v-15.47h-1.889v-1.054l3.969-1.233h1.156V142.33l.4.424,1.528.154v1.156Z" fill="#18307f"/>
            <path id="Path_13" data-name="Path 13" d="M223.1,142.561a11.852,11.852,0,0,1-2.428,1.323,5.942,5.942,0,0,1-2.094.411,3.361,3.361,0,0,1-2.478-.958,3.6,3.6,0,0,1,.449-5.312q1.413-1,6.589-2.172v-.784a3.006,3.006,0,0,0-.6-2.081,2.469,2.469,0,0,0-1.9-.656,4.826,4.826,0,0,0-.591.039q-.309.039-.668.116v2.467h-2.428a1.47,1.47,0,0,1-.918-.231.885.885,0,0,1-.288-.732q0-1.233,1.655-2.146a8.319,8.319,0,0,1,4.067-.912,5.513,5.513,0,0,1,3.811,1.041,4.855,4.855,0,0,1,1.1,3.623v6.809l.346.373,1.4.129v1.156h-4.677Zm0-1.08V137.19a10.588,10.588,0,0,0-3.545,1.259,2.158,2.158,0,0,0-.95,1.85,1.96,1.96,0,0,0,.527,1.445,1.906,1.906,0,0,0,1.425.533,3.842,3.842,0,0,0,1.137-.2A8.9,8.9,0,0,0,223.1,141.482Z" fill="#18307f"/>
            <path id="Path_14" data-name="Path 14" d="M169.137,175.641v-1.285l1.58-.142.424-.411V159.773l-.424-.373-1.682-.129v-1.285h13.2v4.42h-1.811l-.4-2.557-.335-.334h-5.086v6.553h3.533l.372-.347.257-1.927h1.555v6.142H178.77l-.257-1.927-.372-.347h-3.533V173.8l.45.411,1.849.142v1.285Z" fill="#18307f"/>
            <path id="Path_15" data-name="Path 15" d="M194.67,172.377v1.953a12.067,12.067,0,0,1-2.727,1.156,10.149,10.149,0,0,1-2.752.386,6.329,6.329,0,0,1-4.725-1.812,6.541,6.541,0,0,1-1.781-4.792,6.77,6.77,0,0,1,1.819-4.89,6.213,6.213,0,0,1,4.687-1.895,5.223,5.223,0,0,1,4.038,1.561,6.235,6.235,0,0,1,1.44,4.388v.5h-8.619v.077a5.163,5.163,0,0,0,1.132,3.533,3.935,3.935,0,0,0,3.113,1.285,6.691,6.691,0,0,0,2.122-.36A10.611,10.611,0,0,0,194.67,172.377Zm-3.469-4.843v-.283a4.321,4.321,0,0,0-.59-2.461,1.94,1.94,0,0,0-1.7-.854,2.322,2.322,0,0,0-1.94.957,4.548,4.548,0,0,0-.8,2.641Z" fill="#18307f"/>
            <path id="Path_16" data-name="Path 16" d="M196.776,175.641v-1.182l1.4-.1.373-.4v-9.084h-1.9V163.82l3.866-1.234h1.272l-.116,2.685q.681-.719,1.452-1.394a20.571,20.571,0,0,1,1.617-1.278c.146-.026.264-.043.354-.051s.169-.013.238-.013a3.459,3.459,0,0,1,.853.109,4.193,4.193,0,0,1,.88.34l-.334,3.636h-1.375a1.943,1.943,0,0,0-.713-.72,2.025,2.025,0,0,0-1-.231,2.239,2.239,0,0,0-.8.187,7.1,7.1,0,0,0-1.059.546v7.555l.384.4,1.876.1v1.182Z" fill="#18307f"/>
            <path id="Path_17" data-name="Path 17" d="M210.351,164.745h-1.709v-1l1.94-1.1,1.375-2.737h1.656v3.263h3.892v1.581h-3.892v6.562a3.146,3.146,0,0,0,.475,2.02,2.2,2.2,0,0,0,1.709.541,8.481,8.481,0,0,0,.906-.045,6.679,6.679,0,0,0,.8-.135v1.252a15.663,15.663,0,0,1-2.152.619,9.325,9.325,0,0,1-1.868.21,4.788,4.788,0,0,1-1.227-.141,3,3,0,0,1-.957-.437,1.879,1.879,0,0,1-.738-.868,5.8,5.8,0,0,1-.212-1.92Z" fill="#18307f"/>
            <path id="Path_18" data-name="Path 18" d="M223.682,162.587h1.272v11.371l.384.4,1.478.1v1.182h-6.9v-1.182l1.425-.1.373-.4v-9.084h-1.735V163.82Zm-.282-6a1.928,1.928,0,0,1,1.413.546,1.864,1.864,0,0,1,.553,1.382,1.968,1.968,0,0,1-.547,1.433,1.934,1.934,0,0,1-3.321-1.382,1.953,1.953,0,0,1,.547-1.413A1.807,1.807,0,0,1,223.4,156.587Z" fill="#18307f"/>
            <path id="Path_19" data-name="Path 19" d="M228.819,175.641v-1.157l1.519-.154.37-.373v-15.47h-1.889v-1.054l3.97-1.234h1.156v17.706l.4.424,1.528.154v1.157Z" fill="#18307f"/>
            <path id="Path_20" data-name="Path 20" d="M241.817,162.587h1.272v11.371l.385.4,1.478.1v1.182h-6.9v-1.182l1.426-.1.373-.4v-9.084h-1.735V163.82Zm-.283-6a1.926,1.926,0,0,1,1.413.546,1.862,1.862,0,0,1,.553,1.382,1.97,1.97,0,0,1-.546,1.433,1.934,1.934,0,0,1-3.321-1.382,1.953,1.953,0,0,1,.546-1.413A1.808,1.808,0,0,1,241.534,156.587Z" fill="#18307f"/>
            <path id="Path_21" data-name="Path 21" d="M248.559,164.745H246.85v-1l1.94-1.1,1.375-2.737h1.656v3.263h3.892v1.581h-3.892v6.562a3.145,3.145,0,0,0,.475,2.02,2.2,2.2,0,0,0,1.709.541,8.5,8.5,0,0,0,.906-.045,6.7,6.7,0,0,0,.8-.135v1.252a15.686,15.686,0,0,1-2.152.619,9.326,9.326,0,0,1-1.869.21,4.784,4.784,0,0,1-1.226-.141,3,3,0,0,1-.957-.437,1.879,1.879,0,0,1-.738-.868,5.8,5.8,0,0,1-.212-1.92Z" fill="#18307f"/>
            <path id="Path_22" data-name="Path 22" d="M257.767,162.857h6.679v1.13l-1.336.155-.27.373,2.839,7.439,2.864-7.414-.23-.4-1.388-.155v-1.13h5.048v1.13l-1.426.231-5.073,12.348a10.666,10.666,0,0,1-2.247,3.553,3.821,3.821,0,0,1-2.647,1.291,2.339,2.339,0,0,1-1.593-.585,1.769,1.769,0,0,1-.668-1.368,1.729,1.729,0,0,1,.354-1.047,2.775,2.775,0,0,1,1.008-.816l2.285,1.567a4.928,4.928,0,0,0,1.06-1.24,12.725,12.725,0,0,0,1-1.959l-4.675-11.744-1.579-.231Z" fill="#18307f"/>
            <path id="Path_23" data-name="Path 23" d="M177.691,197.722l4.137,4.342a8.029,8.029,0,0,0,.9-1.439,7.241,7.241,0,0,0,.541-1.542l-.308-.45-1.4-.231V197.2h5.5V198.4l-1.836.347a14.9,14.9,0,0,1-1.034,2.39,12.085,12.085,0,0,1-1.368,2l2.4,2.621,2.183.193v1.259h-5.522v-.63l-1.105-1.259a9.4,9.4,0,0,1-2.64,1.657,7.565,7.565,0,0,1-2.858.552,5.538,5.538,0,0,1-3.969-1.471,4.9,4.9,0,0,1-1.554-3.72,4.318,4.318,0,0,1,.911-2.8,5.625,5.625,0,0,1,2.736-1.721,7.393,7.393,0,0,1-1.8-2,4.246,4.246,0,0,1-.592-2.165,3.932,3.932,0,0,1,1.542-3.2,6.134,6.134,0,0,1,3.983-1.246,5.663,5.663,0,0,1,3.672,1.131,3.592,3.592,0,0,1,1.4,2.929,3.943,3.943,0,0,1-.958,2.7A6.555,6.555,0,0,1,177.691,197.722Zm-3.21.964a3.888,3.888,0,0,0-1.054,1.2,2.905,2.905,0,0,0-.36,1.408,4.158,4.158,0,0,0,1.073,2.974,3.664,3.664,0,0,0,2.794,1.137,3.837,3.837,0,0,0,1.464-.283,4.9,4.9,0,0,0,1.348-.848Zm2.209-1.889a5.3,5.3,0,0,0,1.438-1.522,3.507,3.507,0,0,0,.436-1.767,3.188,3.188,0,0,0-.6-2.036,1.952,1.952,0,0,0-1.613-.752,2.035,2.035,0,0,0-1.528.623,2.183,2.183,0,0,0-.6,1.586,3.2,3.2,0,0,0,.552,1.709A12.255,12.255,0,0,0,176.69,196.8Z" fill="#18307f"/>
            <path id="Path_24" data-name="Path 24" d="M197.342,207.217v-1.285l1.747-.141.436-.411V191.349l-.436-.373-1.747-.128v-1.285h7.873v1.285l-1.759.128-.424.373V205.38l.424.411,1.759.141v1.285Z" fill="#18307f"/>
            <path id="Path_25" data-name="Path 25" d="M205.846,189.563h7.231v1.285l-1.528.128-.283.4,4.367,12,4.239-12-.3-.4-1.58-.128v-1.285h5.767v1.285l-1.709.347-5.844,16.022h-2.658l-5.973-16.048-1.733-.321Z" fill="#18307f"/>
            <path id="Path_26" data-name="Path 26" d="M224.405,207.217v-1.285l1.58-.141.424-.411V191.349l-.424-.373-1.682-.128v-1.285h13.2v4.42h-1.811l-.4-2.557-.335-.334h-5.086v6.553h3.533l.372-.347.257-1.927h1.555v6.142h-1.555l-.257-1.927-.372-.347h-3.533v6.142l.45.411,1.849.141v1.285Z" fill="#18307f"/>
          </g>
        </g>
      </g>
    </g>
  </g>
</svg>
