<?xml version="1.0" encoding="utf-8"?>
<!-- Generator: Adobe Illustrator 16.0.0, SVG Export Plug-In . SVG Version: 6.00 Build 0)  -->
<!DOCTYPE svg PUBLIC "-//W3C//DTD SVG 1.1//EN" "http://www.w3.org/Graphics/SVG/1.1/DTD/svg11.dtd">
<svg version="1.1" id="Layer_1" xmlns="http://www.w3.org/2000/svg" xmlns:xlink="http://www.w3.org/1999/xlink" x="0px" y="0px"
	 width="462.667px" height="135.333px" viewBox="0 0 462.667 135.333" enable-background="new 0 0 462.667 135.333"
	 xml:space="preserve">
<rect x="184.627" y="0.649" fill-rule="evenodd" clip-rule="evenodd" fill="#939598" width="3.161" height="93.784"/>
<rect x="0.727" y="0.649" fill-rule="evenodd" clip-rule="evenodd" fill="#096435" width="163.873" height="14.009"/>
<rect x="0.727" y="80.423" fill-rule="evenodd" clip-rule="evenodd" fill="#096435" width="163.873" height="14.01"/>
<g>
	<defs>
		<rect id="SVGID_1_" x="-67" y="-38.349" width="595.276" height="213.015"/>
	</defs>
	<clipPath id="SVGID_2_">
		<use xlink:href="#SVGID_1_"  overflow="visible"/>
	</clipPath>
	<path clip-path="url(#SVGID_2_)" fill-rule="evenodd" clip-rule="evenodd" fill="#E32326" d="M240.628,5.342
		c15.532,0,28.128,12.599,28.128,28.134c0,15.536-12.596,28.133-28.128,28.133s-28.126-12.597-28.126-28.133
		C212.502,17.941,225.096,5.342,240.628,5.342 M240.628,0.75c18.068,0,32.721,14.655,32.721,32.726
		c0,18.071-14.652,32.725-32.721,32.725c-18.066,0-32.718-14.654-32.718-32.725C207.91,15.405,222.562,0.75,240.628,0.75"/>
	<path clip-path="url(#SVGID_2_)" fill-rule="evenodd" clip-rule="evenodd" d="M240.628,14.896c10.257,0,18.576,8.319,18.576,18.58
		c0,10.259-8.319,18.579-18.576,18.579c-10.258,0-18.575-8.32-18.575-18.579C222.053,23.216,230.37,14.896,240.628,14.896"/>
	<path clip-path="url(#SVGID_2_)" d="M285.923,15.738v36.928h3.769c7.137,0,12.625-1.712,16.456-5.138
		c3.833-3.427,5.708-7.913,5.618-13.454c-0.045-5.793-2.049-10.299-6.014-13.517c-3.965-3.213-9.542-4.819-16.721-4.819H285.923z
		 M279.709,10.281h10.377c3.438,0,6.742,0.39,9.915,1.173c3.173,0.783,6.126,2.094,8.857,3.934c2.73,1.84,4.946,4.263,6.643,7.266
		c1.697,3.004,2.565,6.641,2.609,10.913c0.09,4.315-0.824,8.334-2.742,12.056c-1.916,3.722-4.935,6.736-9.053,9.042
		c-4.121,2.304-9.333,3.457-15.633,3.457h-10.974V10.281z"/>
	<rect x="323.86" y="10.28" clip-path="url(#SVGID_2_)" width="6.213" height="47.841"/>
	<path clip-path="url(#SVGID_2_)" d="M361.666,19.353c-1.849-3.087-4.558-4.633-8.13-4.633c-2.29,0-4.238,0.699-5.846,2.096
		c-1.611,1.395-2.413,2.898-2.413,4.505c-0.133,2.665,1.498,4.78,4.891,6.345c1.364,0.508,3.193,1.195,5.483,2.061
		c2.291,0.868,4.506,2.011,6.643,3.427c2.14,1.416,3.648,3.1,4.528,5.046c0.88,2.028,1.32,4.08,1.32,6.153
		c0,4.146-1.541,7.615-4.625,10.407c-3.083,2.793-6.785,4.252-11.104,4.377c-3.879,0.043-7.325-1.174-10.345-3.648
		c-3.018-2.473-4.747-5.72-5.188-9.739l6.213-1.27c0.047,2.96,1.047,5.214,3.009,6.759c1.959,1.544,4.173,2.317,6.643,2.317
		c2.202,0,4.187-0.701,5.949-2.096c1.761-1.396,2.798-3.341,3.105-5.837c0.486-3.045-0.164-5.33-1.949-6.855
		c-1.783-1.519-4.439-2.917-7.965-4.186c-2.73-1.1-4.99-2.167-6.777-3.205c-1.784-1.035-3.25-2.399-4.394-4.091
		c-1.148-1.693-1.696-3.724-1.653-6.093c0-3.002,1.346-5.751,4.032-8.248c2.689-2.495,6.259-3.743,10.709-3.743
		c5.641,0,9.892,2.431,12.757,7.297L361.666,19.353z"/>
	<polygon clip-path="url(#SVGID_2_)" points="374.422,10.281 380.639,10.281 380.639,29.508 404.431,29.508 404.431,10.281 
		410.579,10.281 410.579,58.122 404.431,58.122 404.431,35.09 380.639,35.09 380.639,58.122 374.422,58.122 	"/>
	<path clip-path="url(#SVGID_2_)" d="M438.139,21.323l-8.789,19.352h17.646L438.139,21.323z M438.139,8.186L462,58.122h-6.742
		l-5.685-11.992h-22.802l-5.685,11.992h-6.742L438.139,8.186z"/>
	<path clip-path="url(#SVGID_2_)" fill="#E32326" d="M218.053,74.976h3.567l4.722,11.429l0.051-0.051
		c-0.135-0.451-0.233-1.121-0.301-2.01v-9.368h3.716v18.937h-3.516l-4.672-11.429l-0.051,0.053c0.135,1.172,0.218,2.067,0.252,2.687
		v8.689h-3.768V74.976z"/>
	<polygon clip-path="url(#SVGID_2_)" fill="#E32326" points="235.003,74.976 242.565,74.976 242.565,78.464 238.772,78.464 
		238.772,82.583 242.113,82.583 242.113,86.102 238.772,86.102 238.772,90.372 242.591,90.372 242.591,93.913 235.003,93.913 	"/>
	<path clip-path="url(#SVGID_2_)" fill="#E32326" d="M246.328,74.976h3.818l1.633,9.016c0.049,0.336,0.096,0.726,0.138,1.168
		c0.042,0.445,0.084,0.92,0.127,1.431c0.04,0.514,0.079,0.994,0.111,1.446h0.049c0.067-0.452,0.173-1.228,0.313-2.325
		c0.144-1.096,0.225-1.669,0.242-1.72l1.908-9.016h2.938l2.414,13.061h0.049c0.048-0.484,0.098-1.064,0.151-1.733
		c0.049-0.672,0.126-1.425,0.225-2.261l1.482-9.066h3.921l-3.921,18.937h-3.239l-1.86-9.669c-0.1-0.721-0.204-1.439-0.314-2.162
		c-0.11-0.719-0.205-1.271-0.29-1.655h-0.048c-0.321,2.009-0.51,3.173-0.579,3.489l-2.158,9.997h-3.292L246.328,74.976z"/>
	<path clip-path="url(#SVGID_2_)" fill="#E32326" d="M282.246,78.165c-1.825-0.034-2.739,2.094-2.739,6.381
		c0,1.489,0.193,2.891,0.579,4.206c0.385,1.317,1.055,1.971,2.011,1.971c0.569,0,1.046-0.224,1.432-0.677
		c0.385-0.452,0.691-1.129,0.913-2.035c0.228-0.903,0.358-2.041,0.391-3.416c0-1.724-0.19-3.228-0.578-4.508
		C283.87,78.805,283.199,78.165,282.246,78.165 M282.044,74.574c1.141-0.034,2.233,0.283,3.28,0.954
		c1.044,0.67,1.893,1.77,2.535,3.303c0.644,1.532,0.97,3.471,0.97,5.814c0,1.239-0.193,2.629-0.579,4.17
		c-0.388,1.542-1.113,2.86-2.186,3.954c-1.073,1.1-2.528,1.58-4.371,1.445c-1.123-0.082-2.129-0.438-3.027-1.067
		c-0.895-0.627-1.638-1.628-2.225-2.999c-0.585-1.375-0.911-3.141-0.979-5.303c-0.049-1.908,0.174-3.637,0.665-5.187
		c0.492-1.548,1.255-2.771,2.274-3.666C279.425,75.095,280.637,74.623,282.044,74.574"/>
	<path clip-path="url(#SVGID_2_)" fill="#E32326" d="M297.062,78.065v4.999c0.971,0.032,1.678-0.151,2.123-0.554
		c0.442-0.402,0.666-1.079,0.666-2.034c0-1.607-0.762-2.411-2.287-2.411H297.062z M293.294,74.976h4.749c1.672,0,3,0.441,3.98,1.33
		c0.977,0.887,1.521,2.177,1.62,3.867c0.101,1.942-0.414,3.426-1.545,4.446c-1.131,1.021-2.516,1.549-4.158,1.582
		c-0.368-0.065-0.66-0.1-0.879-0.1v7.811h-3.768V74.976z"/>
	<path clip-path="url(#SVGID_2_)" fill="#E32326" d="M311.854,78.065v4.999c0.972,0.032,1.679-0.151,2.122-0.554
		c0.442-0.402,0.665-1.079,0.665-2.034c0-1.607-0.761-2.411-2.287-2.411H311.854z M308.085,74.976h4.749c1.671,0,3,0.441,3.98,1.33
		c0.978,0.887,1.52,2.177,1.618,3.867c0.102,1.942-0.413,3.426-1.543,4.446c-1.133,1.021-2.516,1.549-4.158,1.582
		c-0.367-0.065-0.662-0.1-0.878-0.1v7.811h-3.769V74.976z"/>
	<path clip-path="url(#SVGID_2_)" fill="#E32326" d="M329.028,78.165c-1.823-0.034-2.736,2.094-2.736,6.381
		c0,1.489,0.192,2.891,0.578,4.206c0.383,1.317,1.054,1.971,2.01,1.971c0.569,0,1.044-0.224,1.431-0.677
		c0.388-0.452,0.693-1.129,0.918-2.035c0.221-0.903,0.356-2.041,0.388-3.416c0-1.724-0.193-3.228-0.576-4.508
		C330.654,78.805,329.982,78.165,329.028,78.165 M328.83,74.574c1.136-0.034,2.23,0.283,3.276,0.954
		c1.048,0.67,1.892,1.77,2.536,3.303c0.646,1.532,0.97,3.471,0.97,5.814c0,1.239-0.192,2.629-0.581,4.17
		c-0.385,1.542-1.111,2.86-2.183,3.954c-1.073,1.1-2.531,1.58-4.37,1.445c-1.122-0.082-2.132-0.438-3.028-1.067
		c-0.896-0.627-1.639-1.628-2.226-2.999c-0.581-1.375-0.911-3.141-0.979-5.303c-0.051-1.908,0.173-3.637,0.668-5.187
		c0.491-1.548,1.252-2.771,2.27-3.666C326.209,75.095,327.421,74.623,328.83,74.574"/>
	<path clip-path="url(#SVGID_2_)" fill="#E32326" d="M343.848,78.065v4.999c0.233,0,0.418,0.016,0.55,0.05
		c1.709-0.05,2.519-1.032,2.436-2.94c0-1.404-0.794-2.108-2.382-2.108H343.848z M340.076,74.976h4.223
		c4.004,0,6.078,1.682,6.228,5.048c0,2.495-0.903,4.246-2.712,5.249l3.292,8.64h-3.919l-3.293-8.741h-0.047v8.741h-3.771V74.976z"/>
	<polygon clip-path="url(#SVGID_2_)" fill="#E32326" points="354.391,74.976 363.987,74.976 363.987,78.464 361.049,78.464 
		361.049,93.913 357.328,93.913 357.328,78.464 354.391,78.464 	"/>
	<path clip-path="url(#SVGID_2_)" fill="#E32326" d="M368.203,74.976h3.719v13.285c0,1.708,0.616,2.563,1.855,2.563
		c0.807,0.019,1.321-0.214,1.548-0.69c0.224-0.477,0.337-1.177,0.337-2.098V74.976h3.77v13.838c0,1.677-0.391,2.98-1.168,3.921
		c-0.779,0.936-2.257,1.431-4.434,1.479c-1.659,0.035-3.009-0.366-4.059-1.202c-1.044-0.839-1.568-2.255-1.568-4.246V74.976z"/>
	<path clip-path="url(#SVGID_2_)" fill="#E32326" d="M384.575,74.976h3.568l4.724,11.429l0.048-0.051
		c-0.134-0.451-0.233-1.121-0.301-2.01v-9.368h3.719v18.937h-3.519l-4.671-11.429l-0.052,0.053c0.134,1.172,0.218,2.067,0.252,2.687
		v8.689h-3.769V74.976z"/>
	<rect x="401.526" y="74.974" clip-path="url(#SVGID_2_)" fill="#E32326" width="3.771" height="18.938"/>
	<polygon clip-path="url(#SVGID_2_)" fill="#E32326" points="409.61,74.976 419.206,74.976 419.206,78.464 416.27,78.464 
		416.27,93.913 412.552,93.913 412.552,78.464 409.61,78.464 	"/>
	<rect x="423.523" y="74.974" clip-path="url(#SVGID_2_)" fill="#E32326" width="3.768" height="18.938"/>
	<polygon clip-path="url(#SVGID_2_)" fill="#E32326" points="432.536,74.976 440.097,74.976 440.097,78.464 436.304,78.464 
		436.304,82.583 439.646,82.583 439.646,86.102 436.304,86.102 436.304,90.372 440.122,90.372 440.122,93.913 432.536,93.913 	"/>
	<path clip-path="url(#SVGID_2_)" fill="#E32326" d="M445.241,93.286v-3.592c0.84,0.638,1.75,0.979,2.739,1.029
		c1.239-0.051,1.975-0.586,2.208-1.606c0.152-0.669,0.037-1.234-0.337-1.697c-0.378-0.458-1.015-0.998-1.91-1.617
		c-0.892-0.621-1.553-1.158-1.973-1.609c-0.937-0.938-1.432-2.228-1.482-3.868c0.051-0.922,0.169-1.658,0.354-2.21
		c0.318-1.071,0.907-1.913,1.771-2.524c0.861-0.61,1.838-0.918,2.927-0.918s2.166,0.302,3.238,0.905v3.668
		c-0.934-0.788-1.847-1.183-2.739-1.183c-1.002,0-1.623,0.604-1.857,1.811c0.018,0.435,0.139,0.842,0.365,1.218
		c0.225,0.377,0.562,0.756,1.004,1.142c0.445,0.386,0.912,0.756,1.409,1.105c0.494,0.352,0.754,0.546,0.79,0.577
		c0.687,0.537,1.21,1.203,1.571,1.999c0.357,0.795,0.538,1.662,0.538,2.599c0,1.021-0.23,1.971-0.69,2.853
		c-0.458,0.878-1.105,1.572-1.933,2.085c-0.829,0.51-1.771,0.763-2.827,0.763C447.317,94.213,446.262,93.907,445.241,93.286"/>
	<path clip-path="url(#SVGID_2_)" fill="#921C1E" d="M24.105,64.42c0.944,0,1.736-0.408,2.38-1.225
		c0.641-0.815,0.96-1.809,0.96-2.982V34.977c0-1.274-0.293-2.358-0.878-3.249c-0.586-0.892-1.266-1.34-2.045-1.34
		c-1.059,0-1.949,0.372-2.672,1.11c-0.724,0.741-1.085,1.644-1.085,2.715v26.382c0,1.072,0.32,1.975,0.959,2.715
		C22.367,64.05,23.159,64.42,24.105,64.42 M24.105,77.419c-7.068,0-12.734-1.468-16.991-4.397
		c-4.258-2.931-6.387-6.818-6.387-11.662V33.831c0-4.844,2.046-8.73,6.138-11.662c4.09-2.932,9.557-4.397,16.404-4.397
		c7.346,0,13.219,1.147,17.618,3.439c4.397,2.296,6.594,5.355,6.594,9.177v31.738c0,4.637-2.127,8.347-6.387,11.125
		C36.837,76.03,31.173,77.419,24.105,77.419"/>
	<path clip-path="url(#SVGID_2_)" fill="#921C1E" d="M140.387,77.817c-6.013,0-11.132-1.646-15.36-4.935
		c-4.233-3.286-6.347-7.25-6.347-11.892V35.757c0-4.842,2.323-8.983,6.972-12.426c4.647-3.44,10.255-5.162,16.821-5.162
		c5.068,0,9.519,0.498,13.36,1.492c3.84,0.993,6.765,2.408,8.767,4.244v17.205h-19.202v-6.88c0-0.97-0.322-1.786-0.96-2.449
		c-0.641-0.663-1.434-0.994-2.383-0.994c-0.945,0-1.737,0.331-2.376,0.994c-0.642,0.663-0.961,1.479-0.961,2.449v26.761
		c0,1.072,0.319,1.977,0.961,2.718c0.639,0.739,1.431,1.108,2.376,1.108c0.949,0,1.742-0.409,2.383-1.224
		c0.638-0.816,0.96-1.809,0.96-2.983v-8.029H164.6v20.265c-2.507,1.633-5.832,2.868-9.979,3.71
		C150.475,77.396,145.732,77.817,140.387,77.817"/>
	<path clip-path="url(#SVGID_2_)" fill="#921C1E" d="M74.499,74.871H54.93V64.655c0.86-0.485,1.537-1.115,2.027-1.895
		c0.491-0.777,0.735-1.604,0.735-2.48V33.286c0-0.534-0.245-1.092-0.735-1.676c-0.49-0.585-1.167-1.12-2.027-1.607v-9.847h24.402
		l3.914,19.697l4.374-19.697h23.888v10.212c-0.86,0.244-1.535,0.73-2.026,1.46c-0.49,0.73-0.734,1.583-0.734,2.554V60.28
		c0,0.872,0.244,1.703,0.734,2.48c0.491,0.78,1.166,1.41,2.026,1.895v10.215H91.532v-9.849c0.859-0.388,1.532-0.947,2.023-1.676
		c0.49-0.731,0.737-1.51,0.737-2.335V50.797l-8.284,24.073H80.48l-8.744-24.805V60.28c0,0.876,0.248,1.703,0.736,2.48
		c0.492,0.78,1.167,1.41,2.027,1.895V74.871z"/>
	<polygon clip-path="url(#SVGID_2_)" fill="#6D6E71" points="129.671,115.032 132.729,115.032 137.705,122.76 142.677,115.032 
		145.736,115.032 145.736,131.377 142.887,131.377 142.887,119.655 137.728,127.361 137.634,127.361 132.521,119.701 
		132.521,131.377 129.671,131.377 	"/>
	<path clip-path="url(#SVGID_2_)" fill="#6D6E71" d="M149.659,114.47h3.058v2.687h-3.058V114.47z M149.776,119.047h2.849v12.33
		h-2.849V119.047z"/>
	<path clip-path="url(#SVGID_2_)" fill="#6D6E71" d="M156.292,119.047h2.849v1.935c0.201-0.297,0.422-0.577,0.663-0.835
		c0.24-0.262,0.52-0.492,0.838-0.696c0.317-0.204,0.669-0.365,1.048-0.483c0.378-0.116,0.81-0.177,1.292-0.177
		c1.397,0,2.475,0.43,3.238,1.284c0.759,0.855,1.139,2.009,1.139,3.456v7.848h-2.849v-6.991c0-0.962-0.227-1.703-0.682-2.226
		c-0.456-0.518-1.099-0.779-1.933-0.779c-0.819,0-1.481,0.269-1.99,0.805c-0.51,0.536-0.764,1.286-0.764,2.248v6.943h-2.849V119.047
		z"/>
	<path clip-path="url(#SVGID_2_)" fill="#6D6E71" d="M170.815,114.47h3.058v2.687h-3.058V114.47z M170.931,119.047h2.849v12.33
		h-2.849V119.047z"/>
	<path clip-path="url(#SVGID_2_)" fill="#6D6E71" d="M177.447,119.047h2.848v1.935c0.203-0.297,0.423-0.577,0.664-0.835
		c0.241-0.262,0.52-0.492,0.838-0.696c0.317-0.204,0.669-0.365,1.048-0.483c0.38-0.116,0.81-0.177,1.292-0.177
		c1.398,0,2.475,0.43,3.238,1.284c0.759,0.855,1.139,2.009,1.139,3.456v7.848h-2.849v-6.991c0-0.962-0.226-1.703-0.682-2.226
		c-0.455-0.518-1.099-0.779-1.932-0.779c-0.819,0-1.482,0.269-1.991,0.805c-0.51,0.536-0.765,1.286-0.765,2.248v6.943h-2.848
		V119.047z"/>
	<path clip-path="url(#SVGID_2_)" fill="#6D6E71" d="M197.414,135.16c-2.058,0-3.894-0.486-5.512-1.457l1.052-2.116
		c0.652,0.404,1.337,0.724,2.054,0.957c0.715,0.235,1.492,0.35,2.334,0.35c1.26,0,2.225-0.318,2.895-0.96
		c0.67-0.644,1.005-1.589,1.005-2.84v-0.963c-0.513,0.67-1.115,1.214-1.799,1.636c-0.685,0.421-1.534,0.63-2.544,0.63
		c-0.733,0-1.433-0.131-2.101-0.398c-0.67-0.264-1.266-0.641-1.787-1.132c-0.523-0.49-0.939-1.092-1.249-1.809
		c-0.312-0.715-0.469-1.525-0.469-2.428v-0.049c0-0.901,0.157-1.715,0.469-2.438c0.31-0.725,0.726-1.332,1.249-1.821
		c0.521-0.491,1.121-0.869,1.798-1.133c0.677-0.265,1.374-0.397,2.09-0.397c1.042,0,1.902,0.207,2.579,0.619
		c0.678,0.413,1.257,0.907,1.739,1.482v-1.844h2.827v9.807c0,2.055-0.522,3.604-1.565,4.646c-0.56,0.561-1.265,0.978-2.113,1.249
		C199.518,135.022,198.531,135.16,197.414,135.16 M197.645,128.014c0.483,0,0.947-0.081,1.39-0.245
		c0.443-0.164,0.828-0.397,1.156-0.701c0.327-0.303,0.587-0.661,0.782-1.075c0.195-0.412,0.292-0.867,0.292-1.363v-0.049
		c0-0.512-0.097-0.975-0.292-1.388c-0.195-0.413-0.455-0.771-0.782-1.075c-0.328-0.304-0.713-0.537-1.156-0.7
		c-0.443-0.162-0.907-0.243-1.39-0.243c-0.497,0-0.957,0.081-1.377,0.243c-0.42,0.163-0.79,0.393-1.11,0.689
		c-0.318,0.296-0.568,0.649-0.746,1.062c-0.179,0.414-0.269,0.878-0.269,1.39v0.048c0,0.514,0.093,0.975,0.28,1.387
		c0.187,0.414,0.435,0.772,0.747,1.075c0.313,0.304,0.681,0.537,1.108,0.701C196.707,127.933,197.163,128.014,197.645,128.014"/>
	<polygon clip-path="url(#SVGID_2_)" fill="#6D6E71" points="214.901,115.032 217.75,115.032 217.75,121.827 225.597,121.827 
		225.597,115.032 228.446,115.032 228.446,131.377 225.597,131.377 225.597,124.488 217.75,124.488 217.75,131.377 214.901,131.377 
			"/>
	<path clip-path="url(#SVGID_2_)" fill="#6D6E71" d="M239.862,131.376v-1.517c-0.419,0.497-0.957,0.918-1.611,1.259
		c-0.653,0.344-1.446,0.515-2.38,0.515c-0.594,0-1.153-0.081-1.682-0.246c-0.53-0.161-0.993-0.403-1.389-0.724
		c-0.398-0.316-0.718-0.716-0.958-1.189c-0.241-0.476-0.364-1.025-0.364-1.647v-0.046c0-0.684,0.126-1.28,0.373-1.787
		c0.251-0.505,0.597-0.925,1.04-1.26c0.445-0.335,0.974-0.584,1.589-0.748c0.614-0.163,1.28-0.246,1.998-0.246
		c0.745,0,1.379,0.046,1.901,0.142c0.521,0.094,1.023,0.218,1.507,0.374v-0.233c0-0.858-0.261-1.51-0.783-1.961
		c-0.523-0.452-1.273-0.677-2.254-0.677c-0.698,0-1.321,0.067-1.867,0.208c-0.544,0.14-1.098,0.328-1.659,0.561l-0.769-2.265
		c0.685-0.313,1.384-0.561,2.101-0.748c0.716-0.187,1.58-0.279,2.591-0.279c1.838,0,3.202,0.455,4.088,1.367
		c0.889,0.909,1.331,2.191,1.331,3.842v7.307H239.862z M239.934,126.216c-0.358-0.142-0.782-0.257-1.274-0.351
		c-0.489-0.093-1.008-0.139-1.552-0.139c-0.889,0-1.579,0.17-2.079,0.512c-0.497,0.344-0.747,0.811-0.747,1.402v0.046
		c0,0.592,0.229,1.043,0.69,1.355c0.458,0.312,1.022,0.466,1.692,0.466c0.467,0,0.899-0.063,1.297-0.188
		c0.395-0.123,0.744-0.298,1.038-0.524c0.296-0.226,0.527-0.497,0.688-0.816c0.164-0.321,0.247-0.673,0.247-1.062V126.216z"/>
	<path clip-path="url(#SVGID_2_)" fill="#6D6E71" d="M246.026,119.047h2.85v2.057c0.451-0.655,1.01-1.202,1.677-1.648
		c0.668-0.443,1.5-0.665,2.493-0.665c0.729,0,1.438,0.141,2.119,0.42c0.684,0.28,1.294,0.694,1.83,1.238
		c0.535,0.545,0.966,1.214,1.292,2.008c0.327,0.794,0.491,1.704,0.491,2.733v0.046c0,1.028-0.161,1.937-0.48,2.731
		c-0.318,0.795-0.744,1.465-1.28,2.009c-0.534,0.545-1.149,0.957-1.841,1.237c-0.69,0.28-1.401,0.419-2.131,0.419
		c-1.009,0-1.85-0.218-2.517-0.653c-0.668-0.435-1.218-0.941-1.653-1.519v5.653h-2.85V119.047z M252.402,129.182
		c0.479,0,0.938-0.095,1.366-0.28c0.428-0.188,0.802-0.447,1.119-0.782c0.32-0.334,0.574-0.748,0.761-1.238
		c0.188-0.489,0.279-1.038,0.279-1.646v-0.046c0-0.593-0.092-1.133-0.279-1.622c-0.187-0.491-0.44-0.908-0.761-1.25
		c-0.317-0.343-0.691-0.61-1.119-0.795c-0.429-0.188-0.887-0.28-1.366-0.28c-0.483,0-0.942,0.092-1.378,0.28
		c-0.437,0.185-0.817,0.455-1.146,0.805c-0.323,0.352-0.586,0.768-0.778,1.25c-0.197,0.481-0.293,1.02-0.293,1.612v0.046
		c0,0.592,0.096,1.133,0.293,1.622c0.192,0.491,0.455,0.907,0.778,1.25c0.329,0.342,0.71,0.606,1.146,0.794
		C251.46,129.087,251.919,129.182,252.402,129.182"/>
	<path clip-path="url(#SVGID_2_)" fill="#6D6E71" d="M261.672,119.047h2.849v2.057c0.451-0.655,1.009-1.202,1.678-1.648
		c0.667-0.443,1.5-0.665,2.492-0.665c0.729,0,1.438,0.141,2.12,0.42c0.684,0.28,1.293,0.694,1.83,1.238
		c0.535,0.545,0.966,1.214,1.293,2.008c0.326,0.794,0.489,1.704,0.489,2.733v0.046c0,1.028-0.16,1.937-0.479,2.731
		c-0.319,0.795-0.745,1.465-1.28,2.009c-0.536,0.545-1.151,0.957-1.842,1.237s-1.403,0.419-2.132,0.419
		c-1.008,0-1.848-0.218-2.516-0.653c-0.668-0.435-1.217-0.941-1.654-1.519v5.653h-2.849V119.047z M268.048,129.182
		c0.482,0,0.937-0.095,1.367-0.28c0.427-0.188,0.801-0.447,1.117-0.782c0.319-0.334,0.574-0.748,0.762-1.238
		c0.188-0.489,0.279-1.038,0.279-1.646v-0.046c0-0.593-0.092-1.133-0.279-1.622c-0.188-0.491-0.442-0.908-0.762-1.25
		c-0.316-0.343-0.69-0.61-1.117-0.795c-0.431-0.188-0.885-0.28-1.367-0.28c-0.483,0-0.941,0.092-1.378,0.28
		c-0.436,0.185-0.818,0.455-1.145,0.805c-0.326,0.352-0.587,0.768-0.783,1.25c-0.194,0.481-0.289,1.02-0.289,1.612v0.046
		c0,0.592,0.095,1.133,0.289,1.622c0.196,0.491,0.457,0.907,0.783,1.25c0.326,0.342,0.709,0.606,1.145,0.794
		C267.106,129.087,267.564,129.182,268.048,129.182"/>
	<path clip-path="url(#SVGID_2_)" fill="#6D6E71" d="M277.366,114.47h3.059v2.687h-3.059V114.47z M277.48,119.047h2.848v12.33
		h-2.848V119.047z"/>
	<path clip-path="url(#SVGID_2_)" fill="#6D6E71" d="M283.996,119.047h2.849v1.935c0.201-0.297,0.423-0.577,0.662-0.835
		c0.241-0.262,0.52-0.492,0.839-0.696c0.318-0.204,0.669-0.365,1.049-0.483c0.381-0.116,0.812-0.177,1.292-0.177
		c1.397,0,2.476,0.43,3.237,1.284c0.759,0.855,1.14,2.009,1.14,3.456v7.848h-2.847v-6.991c0-0.962-0.229-1.703-0.686-2.226
		c-0.455-0.518-1.099-0.779-1.932-0.779c-0.818,0-1.482,0.269-1.991,0.805s-0.764,1.286-0.764,2.248v6.943h-2.849V119.047z"/>
	<path clip-path="url(#SVGID_2_)" fill="#6D6E71" d="M304.122,131.657c-0.884,0-1.716-0.156-2.484-0.467
		c-0.771-0.312-1.44-0.747-2.009-1.308c-0.567-0.56-1.016-1.233-1.343-2.021c-0.327-0.785-0.49-1.655-0.49-2.603v-0.049
		c0-0.886,0.149-1.719,0.445-2.498c0.295-0.777,0.711-1.459,1.248-2.042c0.538-0.586,1.172-1.044,1.902-1.379
		c0.732-0.333,1.542-0.502,2.428-0.502c0.983,0,1.842,0.18,2.58,0.537c0.739,0.36,1.356,0.843,1.846,1.45
		c0.491,0.607,0.859,1.31,1.11,2.112c0.249,0.801,0.373,1.645,0.373,2.533c0,0.123-0.004,0.253-0.012,0.386
		c-0.009,0.132-0.022,0.269-0.033,0.407h-9.063c0.157,1.014,0.559,1.787,1.204,2.325c0.645,0.536,1.428,0.806,2.346,0.806
		c0.701,0,1.309-0.125,1.822-0.374s1.02-0.616,1.517-1.099l1.66,1.473c-0.593,0.698-1.298,1.261-2.115,1.68
		C306.236,131.447,305.262,131.657,304.122,131.657 M306.926,124.348c-0.046-0.45-0.146-0.876-0.303-1.273
		c-0.156-0.395-0.367-0.74-0.631-1.027c-0.264-0.286-0.58-0.516-0.946-0.688c-0.366-0.169-0.783-0.257-1.25-0.257
		c-0.871,0-1.591,0.3-2.158,0.897c-0.569,0.603-0.914,1.385-1.039,2.349H306.926z"/>
	<path clip-path="url(#SVGID_2_)" fill="#6D6E71" d="M316.804,131.611c-0.888,0-1.787-0.158-2.698-0.473
		c-0.91-0.315-1.756-0.779-2.532-1.393l1.261-1.918c0.67,0.498,1.35,0.875,2.042,1.133c0.695,0.256,1.359,0.384,1.997,0.384
		c0.608,0,1.076-0.121,1.414-0.358c0.334-0.242,0.502-0.564,0.502-0.97v-0.047c0-0.232-0.075-0.433-0.222-0.604
		c-0.149-0.171-0.351-0.318-0.608-0.444c-0.257-0.123-0.552-0.24-0.889-0.349c-0.334-0.108-0.679-0.217-1.038-0.327
		c-0.451-0.123-0.907-0.271-1.365-0.441c-0.46-0.173-0.87-0.394-1.237-0.664c-0.365-0.272-0.665-0.61-0.899-1.015
		c-0.234-0.402-0.349-0.901-0.349-1.489v-0.047c0-0.575,0.111-1.097,0.336-1.561c0.229-0.468,0.54-0.863,0.935-1.189
		c0.397-0.327,0.866-0.575,1.4-0.746c0.537-0.171,1.109-0.256,1.716-0.256c0.78,0,1.566,0.126,2.36,0.377
		c0.793,0.251,1.517,0.597,2.172,1.04l-1.122,2.015c-0.591-0.356-1.189-0.642-1.799-0.852c-0.606-0.21-1.166-0.315-1.679-0.315
		c-0.548,0-0.972,0.117-1.274,0.351c-0.303,0.231-0.455,0.528-0.455,0.885v0.045c0,0.218,0.078,0.409,0.234,0.574
		c0.155,0.161,0.361,0.308,0.618,0.44c0.257,0.134,0.552,0.257,0.888,0.375c0.334,0.113,0.681,0.229,1.039,0.336
		c0.45,0.141,0.902,0.304,1.354,0.489c0.451,0.187,0.859,0.415,1.226,0.688c0.365,0.271,0.667,0.6,0.899,0.989
		c0.233,0.389,0.351,0.861,0.351,1.421v0.047c0,0.654-0.117,1.22-0.351,1.701c-0.232,0.48-0.558,0.882-0.969,1.2
		c-0.412,0.318-0.901,0.559-1.46,0.722C318.04,131.53,317.441,131.611,316.804,131.611"/>
	<path clip-path="url(#SVGID_2_)" fill="#6D6E71" d="M328.479,131.611c-0.887,0-1.786-0.158-2.696-0.473
		c-0.911-0.315-1.757-0.779-2.533-1.393l1.261-1.918c0.669,0.498,1.35,0.875,2.042,1.133c0.693,0.256,1.359,0.384,1.996,0.384
		c0.607,0,1.076-0.121,1.414-0.358c0.334-0.242,0.502-0.564,0.502-0.97v-0.047c0-0.232-0.074-0.433-0.224-0.604
		c-0.146-0.171-0.349-0.318-0.605-0.444c-0.257-0.123-0.553-0.24-0.889-0.349c-0.333-0.108-0.68-0.217-1.039-0.327
		c-0.45-0.123-0.905-0.271-1.365-0.441c-0.458-0.173-0.871-0.394-1.236-0.664c-0.365-0.272-0.665-0.61-0.899-1.015
		c-0.234-0.402-0.351-0.901-0.351-1.489v-0.047c0-0.575,0.112-1.097,0.338-1.561c0.225-0.468,0.537-0.863,0.935-1.189
		c0.397-0.327,0.865-0.575,1.401-0.746s1.106-0.256,1.716-0.256c0.778,0,1.564,0.126,2.359,0.377
		c0.792,0.251,1.517,0.597,2.171,1.04l-1.121,2.015c-0.592-0.356-1.19-0.642-1.799-0.852c-0.606-0.21-1.169-0.315-1.68-0.315
		c-0.546,0-0.971,0.117-1.273,0.351c-0.305,0.231-0.455,0.528-0.455,0.885v0.045c0,0.218,0.077,0.409,0.231,0.574
		c0.155,0.161,0.364,0.308,0.62,0.44c0.256,0.134,0.553,0.257,0.888,0.375c0.334,0.113,0.683,0.229,1.04,0.336
		c0.45,0.141,0.902,0.304,1.355,0.489c0.449,0.187,0.859,0.415,1.224,0.688c0.365,0.271,0.666,0.6,0.899,0.989
		c0.233,0.389,0.351,0.861,0.351,1.421v0.047c0,0.654-0.117,1.22-0.351,1.701c-0.233,0.48-0.557,0.882-0.968,1.2
		c-0.415,0.318-0.9,0.559-1.459,0.722C329.716,131.53,329.116,131.611,328.479,131.611"/>
	<rect x="0.727" y="123.915" clip-path="url(#SVGID_2_)" fill="#921C1E" width="117.953" height="2.233"/>
	<rect x="344.047" y="123.915" clip-path="url(#SVGID_2_)" fill="#096435" width="117.953" height="2.233"/>
</g>
</svg>
